<?xml version="1.0" encoding="UTF-8" standalone="no"?>
<!-- Generator: Adobe Illustrator 24.0.0, SVG Export Plug-In . SVG Version: 6.00 Build 0)  -->

<svg
   version="1.1"
   id="Layer_1"
   x="0px"
   y="0px"
   viewBox="0 0 374.01171 309.59178"
   xml:space="preserve"
   sodipodi:docname="solitter-logo.svg"
   width="374.01172"
   height="309.5918"
   inkscape:version="1.1.2 (b8e25be8, 2022-02-05)"
   xmlns:inkscape="http://www.inkscape.org/namespaces/inkscape"
   xmlns:sodipodi="http://sodipodi.sourceforge.net/DTD/sodipodi-0.dtd"
   xmlns:xlink="http://www.w3.org/1999/xlink"
   xmlns="http://www.w3.org/2000/svg"
   xmlns:svg="http://www.w3.org/2000/svg"><defs
   id="defs850"><linearGradient
     inkscape:collect="always"
     xlink:href="#SVGID_2_"
     id="linearGradient994"
     gradientUnits="userSpaceOnUse"
     gradientTransform="matrix(1,0,0,-1,0,314)"
     x1="264.8291"
     y1="401.60141"
     x2="45.162998"
     y2="-19.147499" /></defs><sodipodi:namedview
   id="namedview848"
   pagecolor="#505050"
   bordercolor="#eeeeee"
   borderopacity="1"
   inkscape:pageshadow="0"
   inkscape:pageopacity="0"
   inkscape:pagecheckerboard="0"
   showgrid="false"
   inkscape:zoom="0.69705698"
   inkscape:cx="187.21568"
   inkscape:cy="96.118397"
   inkscape:window-width="1620"
   inkscape:window-height="890"
   inkscape:window-x="0"
   inkscape:window-y="23"
   inkscape:window-maximized="0"
   inkscape:current-layer="layer3" />
<style
   type="text/css"
   id="style824">
	.st0{fill:url(#SVGID_1_);}
	.st1{fill:url(#SVGID_2_);}
	.st2{fill:url(#SVGID_3_);}
</style>
<linearGradient
   id="SVGID_1_"
   gradientUnits="userSpaceOnUse"
   x1="360.87909"
   y1="351.45529"
   x2="141.213"
   y2="-69.293602"
   gradientTransform="matrix(1,0,0,-1,0,314)">
	<stop
   offset="0"
   style="stop-color:#00FFA3"
   id="stop826" />
	<stop
   offset="1"
   style="stop-color:#DC1FFF"
   id="stop828" />
</linearGradient>

<linearGradient
   id="SVGID_2_"
   gradientUnits="userSpaceOnUse"
   x1="264.8291"
   y1="401.60141"
   x2="45.162998"
   y2="-19.147499"
   gradientTransform="matrix(1,0,0,-1,0,314)">
	<stop
   offset="0"
   style="stop-color:#00FFA3"
   id="stop833" />
	<stop
   offset="1"
   style="stop-color:#DC1FFF"
   id="stop835" />
</linearGradient>

<linearGradient
   id="SVGID_3_"
   gradientUnits="userSpaceOnUse"
   x1="312.5484"
   y1="376.68799"
   x2="92.882202"
   y2="-44.061001"
   gradientTransform="matrix(1,0,0,-1,0,314)">
	<stop
   offset="0"
   style="stop-color:#00FFA3"
   id="stop840" />
	<stop
   offset="1"
   style="stop-color:#DC1FFF"
   id="stop842" />
</linearGradient>

<g
   inkscape:groupmode="layer"
   id="layer3"
   inkscape:label="Solitter"
   style="display:inline"
   transform="translate(-11.001918,-2.2402344)"><path
     id="path985"
     style="fill:url(#linearGradient994)"
     class="st1"
     d="m 269.95117,2.2402344 c -42.37583,0 -76.74023,35.0008546 -76.74023,78.1464846 0,6.133177 0.67369,12.098562 1.99023,17.820312 C 131.42426,94.938544 74.87205,63.837179 37.029297,16.546875 30.439156,28.097076 26.640625,41.51423 26.640625,55.830078 c 0,27.115555 13.545781,51.055112 34.146484,65.058592 -12.589308,-0.39618 -24.416141,-3.91649 -34.753906,-9.77539 -0.0113,0.32792 -0.0098,0.64758 -0.0098,0.99805 0,37.85052 26.450031,69.45351 61.5625,76.61523 -6.448005,1.79045 -13.232836,2.75 -20.234376,2.75 -4.93699,0 -9.746704,-0.49559 -14.421874,-1.41015 9.769244,31.05449 38.097091,53.65276 71.683597,54.28515 -26.263304,20.9671 -59.348916,33.45508 -95.306644,33.45508 -6.18621,0 -12.298016,-0.35852 -18.304688,-1.08203 33.959999,22.17058 74.286936,35.10703 117.626952,35.10742 141.14302,-0.002 218.32421,-119.09833 218.32421,-222.371092 0,-3.382791 -0.0678,-6.75121 -0.21679,-10.103516 14.983,-11.032111 28.00691,-24.798685 38.27734,-40.470703 -13.74877,6.224616 -28.5448,10.415202 -44.0664,12.304687 C 356.79052,41.515427 368.95206,26.208131 374.68945,7.9609375 359.86352,16.913105 343.44432,23.419353 325.96289,26.931641 311.9598,11.73962 292.02549,2.2402344 269.95117,2.2402344 Z" /></g></svg>
